#N canvas 0 70 500 500 36;
#X obj 179 299 f;
#X obj 259 299 + 1;
#X obj 19 379 sel 0;
#X obj 19 419 outlet;
#X text 19 451 whole note;
#X text 19 11 https://www.youtube.com/watch?v=4UDJ1rZi1Yk;
#X obj 99 379 sel 0;
#X obj 99 419 outlet;
#X text 99 451 1/2 note;
#X obj 179 379 sel 0;
#X obj 179 419 outlet;
#X text 179 451 1/4 note;
#X obj 259 379 sel 0;
#X obj 259 419 outlet;
#X text 259 451 1/8 note;
#X obj 339 379 sel 0;
#X obj 339 419 outlet;
#X text 339 451 1/16 note;
#X obj 19 259 metro;
#X obj 419 299 outlet;
#X text 419 333 1/32 note;
#X obj 19 79 inlet;
#X obj 99 79 inlet;
#X obj 19 339 % 32;
#X obj 99 339 % 16;
#X obj 179 339 % 8;
#X obj 259 339 % 4;
#X obj 339 339 % 2;
#X text 19 51 toggle;
#X text 99 51 bpm;
#X obj 139 159 * 8;
#X obj 99 179 /;
#X floatatom 99 159 5 60000 60000 0 - - - 12;
#X obj 99 119 bng 20 250 50 0 empty empty empty 17 7 0 10 #e3dfd9 #5a5a5a #5a5a5a;
#X floatatom 139 119 5 0 0 0 - - - 12;
#X floatatom 99 219 5 0 0 0 - - - 12;
#X text 179 118 bpm;
#X text 139 218 ms;
#X connect 0 0 1 0;
#X connect 0 0 23 0;
#X connect 0 0 24 0;
#X connect 0 0 25 0;
#X connect 0 0 26 0;
#X connect 0 0 27 0;
#X connect 1 0 0 1;
#X connect 2 0 3 0;
#X connect 6 0 7 0;
#X connect 9 0 10 0;
#X connect 12 0 13 0;
#X connect 15 0 16 0;
#X connect 18 0 0 0;
#X connect 18 0 19 0;
#X connect 21 0 18 0;
#X connect 22 0 33 0;
#X connect 22 0 34 0;
#X connect 23 0 2 0;
#X connect 24 0 6 0;
#X connect 25 0 9 0;
#X connect 26 0 12 0;
#X connect 27 0 15 0;
#X connect 30 0 31 1;
#X connect 31 0 35 0;
#X connect 32 0 31 0;
#X connect 33 0 32 0;
#X connect 34 0 30 0;
#X connect 35 0 18 1;
