#N canvas 0 70 3072 1537 36;
#X obj 1631 762 f;
#X obj 1724 761 + 1;
#X obj 1080 1019 sel 0;
#X obj 1080 1072 outlet;
#X text 1046 1126 whole note;
#X text 31 27 https://www.youtube.com/watch?v=4UDJ1rZi1Yk;
#X obj 1372 1025 sel 0;
#X obj 1372 1078 outlet;
#X text 1338 1132 1/2 note;
#X obj 1636 1030 sel 0;
#X obj 1636 1083 outlet;
#X text 1602 1137 1/4 note;
#X obj 1889 1028 sel 0;
#X obj 1889 1081 outlet;
#X text 1855 1135 1/8 note;
#X obj 2115 1029 sel 0;
#X obj 2115 1082 outlet;
#X text 2081 1136 1/16 note;
#X obj 1672 581 metro;
#X obj 2376 970 outlet;
#X text 2351 1027 1/32 note;
#X obj 855 282 inlet;
#X text 781 223 toggle input;
#X obj 1374 184 inlet;
#X text 1355 114 bpm input;
#X obj 1739 153 loadbang;
#X obj 1730 282 f \$1;
#X obj 1682 405 expr 60000/(8*$f1);
#X obj 1080 966 % 32;
#X obj 1372 972 % 16;
#X obj 1636 977 % 8;
#X obj 1889 975 % 4;
#X obj 2115 976 % 2;
#X connect 0 0 1 0;
#X connect 0 0 28 0;
#X connect 0 0 29 0;
#X connect 0 0 30 0;
#X connect 0 0 31 0;
#X connect 0 0 32 0;
#X connect 1 0 0 1;
#X connect 2 0 3 0;
#X connect 6 0 7 0;
#X connect 9 0 10 0;
#X connect 12 0 13 0;
#X connect 15 0 16 0;
#X connect 18 0 0 0;
#X connect 18 0 19 0;
#X connect 21 0 18 0;
#X connect 23 0 27 0;
#X connect 25 0 26 0;
#X connect 26 0 27 0;
#X connect 27 0 18 1;
#X connect 28 0 2 0;
#X connect 29 0 6 0;
#X connect 30 0 9 0;
#X connect 31 0 12 0;
#X connect 32 0 15 0;
