#N canvas 827 239 440 420 12;
#X obj 99 39 s proba;
#X obj 179 39 s seqlen;
#N canvas 0 0 450 250 (subpatch) 0;
#X array gates 16 float 2;
#X coords 0 1.2 16 -0.2 222 42 1;
#X restore 19 79 graph;
#X obj 259 19 r clock;
#X obj 259 179 tabread gates;
#X floatatom 259 219 5 0 0 0 - - - 0;
#X obj 259 59 f;
#X obj 299 59 + 1;
#X obj 259 99 % 16, f 5;
#X obj 359 59 r seqlen;
#X obj 79 179 random 100, f 12;
#X obj 179 179 r proba;
#X obj 79 259 <;
#X obj 79 299 select 1;
#X obj 259 259 select 0 1;
#X floatatom 259 139 5 0 0 0 - - - 0;
#X obj 259 299 1;
#X obj 299 299 0;
#X text 299 218 old value;
#X text 339 298 new value if;
#X floatatom 79 219 5 0 0 0 - - - 0;
#X floatatom 119 219 5 0 0 0 - - - 0;
#X obj 259 379 tabwrite gates;
#X obj 259 339 f;
#X text 157 299 bang if;
#X obj 79 139 r clock;
#X obj 99 19 inlet;
#X obj 19 19 inlet;
#X obj 19 39 s clock;
#X obj 179 19 inlet;
#X obj 179 259 outlet;
#X connect 3 0 6 0;
#X connect 4 0 5 0;
#X connect 5 0 14 0;
#X connect 5 0 30 0;
#X connect 6 0 7 0;
#X connect 6 0 8 0;
#X connect 7 0 6 1;
#X connect 8 0 15 0;
#X connect 9 0 8 1;
#X connect 10 0 20 0;
#X connect 11 0 21 0;
#X connect 12 0 13 0;
#X connect 13 0 23 0;
#X connect 14 0 16 0;
#X connect 14 1 17 0;
#X connect 15 0 4 0;
#X connect 15 0 22 1;
#X connect 16 0 23 1;
#X connect 17 0 23 1;
#X connect 20 0 12 0;
#X connect 21 0 12 1;
#X connect 23 0 22 0;
#X connect 25 0 10 0;
#X connect 26 0 0 0;
#X connect 27 0 28 0;
#X connect 29 0 1 0;
