#N canvas 0 70 920 920 36;
#N canvas 1498 242 450 296 (subpatch) 0;
#X array pitches 16 float 3;
#A 0 76 98 72 117 74 80 84 126 74 98 73 77 61 88 70 71;
#X coords 0 127 16 0 320 320 1 0 0;
#X restore 579 19 graph;
#X floatatom 579 459 5 0 0 0 - - - 12;
#X obj 399 399 f;
#X obj 499 399 + 1;
#X obj 579 339 hradio 20 1 0 16 empty empty empty 0 -25 0 36 #e3c6ff #2f004d #2f004d 0;
#X floatatom 39 680 5 0 0 0 - - - 12;
#X text 619 457 old pitch;
#X text 79 837 new pitch;
#X floatatom 39 560 4 0 0 0 - - - 12;
#X text 79 559 signed amount of pitch change;
#X obj 39 600 +, f 25;
#X obj 579 419 tabread pitches;
#X obj 39 879 tabwrite pitches, f 5;
#X floatatom 579 379 5 0 0 0 - - - 12;
#X obj 39 799 clip 0 127;
#X obj 39 640 int;
#X text 379 278 if full force \, change by force \, if not change by rand between 0 and force, f 6;
#X obj 619 499 outlet;
#X obj 399 359 r clock;
#X obj 19 19 inlet;
#X obj 99 19 inlet;
#X obj 19 59 s clock;
#X obj 99 59 s proba;
#X obj 179 19 inlet;
#X obj 179 59 s force;
#X obj 259 19 inlet;
#X obj 259 59 s fforce;
#X obj 379 139 r force;
#X obj 279 119 r fforce;
#X obj 339 19 inlet;
#X obj 339 59 s lomidi;
#X obj 419 19 inlet;
#X obj 419 59 s himidi;
#X obj 119 639 r lomidi;
#X obj 199 639 r himidi;
#X floatatom 99 759 5 0 0 0 - - - 12;
#X floatatom 139 759 5 0 0 0 - - - 12;
#X obj 139 159 random 100, f 4;
#X floatatom 139 199 5 0 0 0 - - - 12;
#X floatatom 139 279 4 0 0 0 - - - 12;
#X floatatom 139 400 5 0 0 0 - - - 12;
#X obj 39 159 random 2, f 4;
#X text 179 398 abs amount of pitch change;
#X obj 139 239 <;
#X obj 139 99 r clock;
#X obj 179 199 r proba, f 3;
#X obj 399 199 random;
#X obj 119 680 int;
#X obj 199 680 int;
#X obj 119 720 min;
#X obj 199 720 max;
#X floatatom 39 839 5 0 0 0 - - - 12;
#X obj 39 520 f;
#X obj 119 520 f;
#X obj 179 480 * -1;
#X obj 39 440 select 0 1;
#X obj 139 319 select 0 1;
#X floatatom 139 359 5 0 0 0 - - - 12;
#X obj 179 359 f;
#X obj 279 199 select 0 1;
#X obj 279 239 f;
#X obj 359 239 f;
#X floatatom 319 279 5 0 0 0 - - - 12;
#X floatatom 279 159 5 0 0 0 - - - 12;
#X text 145 800 clip to specified range;
#X obj 499 19 inlet;
#X obj 499 59 s seqlen;
#X obj 439 439 r seqlen;
#X obj 399 479 % 16;
#X connect 1 0 17 0;
#X connect 1 0 10 1;
#X connect 2 0 3 0;
#X connect 2 0 68 0;
#X connect 3 0 2 1;
#X connect 4 0 13 0;
#X connect 5 0 14 0;
#X connect 8 0 10 0;
#X connect 10 0 15 0;
#X connect 11 0 1 0;
#X connect 13 0 12 1;
#X connect 13 0 11 0;
#X connect 14 0 51 0;
#X connect 15 0 5 0;
#X connect 18 0 2 0;
#X connect 19 0 21 0;
#X connect 20 0 22 0;
#X connect 23 0 24 0;
#X connect 25 0 26 0;
#X connect 27 0 46 1;
#X connect 27 0 60 1;
#X connect 28 0 63 0;
#X connect 29 0 30 0;
#X connect 31 0 32 0;
#X connect 33 0 47 0;
#X connect 34 0 48 0;
#X connect 35 0 14 1;
#X connect 36 0 14 2;
#X connect 37 0 38 0;
#X connect 38 0 43 0;
#X connect 39 0 56 0;
#X connect 40 0 54 0;
#X connect 40 0 52 1;
#X connect 41 0 55 0;
#X connect 43 0 39 0;
#X connect 44 0 37 0;
#X connect 44 0 41 0;
#X connect 44 0 46 0;
#X connect 44 0 63 0;
#X connect 45 0 43 1;
#X connect 46 0 61 1;
#X connect 47 0 49 0;
#X connect 47 0 50 0;
#X connect 48 0 49 1;
#X connect 48 0 50 1;
#X connect 49 0 35 0;
#X connect 50 0 36 0;
#X connect 51 0 12 0;
#X connect 52 0 8 0;
#X connect 53 0 8 0;
#X connect 54 0 53 1;
#X connect 55 0 52 0;
#X connect 55 1 53 0;
#X connect 56 0 57 0;
#X connect 56 1 58 0;
#X connect 57 0 40 0;
#X connect 58 0 40 0;
#X connect 59 0 60 0;
#X connect 59 1 61 0;
#X connect 60 0 62 0;
#X connect 61 0 62 0;
#X connect 62 0 58 1;
#X connect 63 0 59 0;
#X connect 65 0 66 0;
#X connect 67 0 68 1;
#X connect 68 0 4 0;
