#N canvas 0 70 3072 1537 36;
#N canvas 1498 242 450 296 (subpatch) 0;
#X array pitches 16 float 3;
#A 0 78 67 67 78 62 59 66 63 73 78 76 78 76 70 78 78;
#A color 0;
#A width 2;
#X coords 0 127 16 0 800 800 1 0 0;
#X restore 1707 70 graph;
#X floatatom 1715 1085 5 0 0 0 - - - 0;
#X obj 1434 774 f;
#X obj 1517 773 + 1;
#X obj 1433 830 % 16;
#X obj 1711 876 hradio 50 1 0 16 empty empty empty 0 -25 0 36 #e3c6ff #2f004d #2f004d 0;
#X obj 380 473 random 100;
#X floatatom 381 533 5 0 0 0 - - - 0;
#X floatatom 380 659 5 0 0 0 - - - 0;
#X floatatom 379 773 5 0 0 0 - - - 0;
#X obj 191 474 random 2;
#X floatatom 1713 1278 5 0 0 0 - - - 0;
#X text 508 773 abs amount of pitch change;
#X text 1845 1084 old pitch;
#X text 1833 1280 new pitch;
#X obj 193 850 expr if ($f1 == 1 \, $f2 \, -$f2);
#X floatatom 193 903 6 0 0 0 - - - 0;
#X text 351 901 signed amount of pitch change;
#X obj 1714 1151 +;
#X obj 1716 1020 tabread pitches;
#X obj 1713 1483 tabwrite pitches;
#X floatatom 1712 951 5 0 0 0 - - - 0;
#X obj 1713 1415 clip 0 127;
#X obj 1711 1214 int;
#X obj 1155 362 random 0;
#X obj 380 596 <;
#X obj 681 474 expr if ($f1 == 1 \, $f2 \, $f3 + 1);
#X obj 379 715 expr if ($f1 == 1 \, $f2 \, 0);
#X text 675 542 if full force \, change by force \, if not change by rand between 0 and force, f 31;
#X obj 1814 1153 outlet;
#X obj 264 391 r clock;
#X obj 1156 301 r clock;
#X obj 1432 710 r clock;
#X obj 188 41 inlet;
#X obj 406 39 inlet;
#X obj 188 94 s clock;
#X obj 406 92 s proba;
#X obj 632 41 inlet;
#X obj 632 94 s force;
#X obj 868 42 inlet;
#X obj 868 95 s fforce;
#X obj 503 533 r proba;
#X obj 1145 206 r force;
#X obj 682 397 r fforce;
#X obj 1082 43 inlet;
#X obj 1082 96 s lomidi;
#X obj 1293 41 inlet;
#X obj 1293 94 s himidi;
#X obj 2238 1218 r lomidi;
#X obj 2462 1219 r himidi;
#X obj 2162 1282 expr int(min($f1 \, $f2));
#X obj 2181 1337 expr int(max($f1 \, $f2));
#X floatatom 1819 1356 5 0 0 0 - - - 0;
#X floatatom 1949 1355 5 0 0 0 - - - 0;
#X connect 1 0 18 0;
#X connect 1 0 29 0;
#X connect 2 0 3 0;
#X connect 2 0 4 0;
#X connect 3 0 2 1;
#X connect 4 0 5 0;
#X connect 5 0 21 0;
#X connect 6 0 7 0;
#X connect 7 0 25 0;
#X connect 8 0 27 0;
#X connect 9 0 15 1;
#X connect 10 0 15 0;
#X connect 11 0 22 0;
#X connect 15 0 16 0;
#X connect 16 0 18 1;
#X connect 18 0 23 0;
#X connect 19 0 1 0;
#X connect 21 0 20 1;
#X connect 21 0 19 0;
#X connect 22 0 20 0;
#X connect 23 0 11 0;
#X connect 24 0 26 2;
#X connect 25 0 8 0;
#X connect 26 0 27 1;
#X connect 27 0 9 0;
#X connect 30 0 10 0;
#X connect 30 0 6 0;
#X connect 30 0 26 0;
#X connect 31 0 24 0;
#X connect 32 0 2 0;
#X connect 33 0 35 0;
#X connect 34 0 36 0;
#X connect 37 0 38 0;
#X connect 39 0 40 0;
#X connect 41 0 25 1;
#X connect 42 0 24 1;
#X connect 42 0 26 1;
#X connect 43 0 26 0;
#X connect 44 0 45 0;
#X connect 46 0 47 0;
#X connect 48 0 50 0;
#X connect 48 0 51 0;
#X connect 49 0 50 1;
#X connect 49 0 51 1;
#X connect 50 0 52 0;
#X connect 51 0 53 0;
#X connect 52 0 22 1;
#X connect 53 0 22 2;
