#N canvas 0 70 3072 1537 36;
#N canvas 1498 242 450 296 (subpatch) 0;
#X array pitches 16 float 3;
#A 0 90 35 46 53 85 71 45 121 99 72 76 96 100 127 17 42;
#A color 0;
#A width 2;
#X coords 0 127 16 0 800 800 1 0 0;
#X restore 1707 70 graph;
#X floatatom 1715 1085 5 0 0 0 - - - 0;
#X obj 1024 392 tgl 48 0 empty empty empty 0 -25 0 36 #fcfcfc #000000 #000000 0 1;
#X obj 1030 513 bng 48 250 50 0 empty empty empty 0 -25 0 36 #fcfcfc #000000 #000000;
#X obj 1027 453 metro;
#X floatatom 1155 453 5 0 0 0 - - - 0;
#X obj 1220 389 /;
#X msg 1083 391 60000;
#X obj 1112 524 f;
#X obj 1195 523 + 1;
#X obj 1111 580 % 16;
#X obj 1711 876 hradio 50 1 0 16 empty empty empty 0 -25 0 36 #e3c6ff #2f004d #2f004d 0;
#X obj 2780 1342 dac~;
#X obj 2787 1226 *~ 0.25;
#X obj 2784 1286 clip~ -1 1;
#X obj 2788 1170 osc~;
#X obj 667 723 random 100;
#X floatatom 668 783 5 0 0 0 - - - 0;
#X floatatom 667 909 5 0 0 0 - - - 0;
#X floatatom 666 1023 5 0 0 0 - - - 0;
#X obj 478 724 random 2;
#X floatatom 1713 1278 5 0 0 0 - - - 0;
#X obj 1434 83 vsl 48 409 0 100 0 0 empty empty proba 0 -30 0 18 #c6ffc7 #2f004d #2f004d 0 0;
#X obj 1571 65 vsl 48 409 1 12 0 0 empty empty force 0 -30 0 18 #c6ffc7 #2f004d #2f004d 0 0;
#X obj 1278 236 nbx 5 72 1 255 0 0 empty empty BPM 0 -30 0 18 #c6ffc7 #000000 #000000 0 256;
#X text 795 1023 abs amount of pitch change;
#X text 1845 1084 old pitch;
#X text 1833 1280 new pitch;
#X obj 480 1100 expr if ($f1 == 1 \, $f2 \, -$f2);
#X floatatom 480 1153 6 0 0 0 - - - 0;
#X text 638 1151 signed amount of pitch change;
#X obj 1714 1151 +;
#X obj 1716 1020 tabread pitches;
#X obj 1714 1405 tabwrite pitches;
#X floatatom 1712 951 5 0 0 0 - - - 0;
#X obj 1714 1337 clip 0 127;
#X obj 1711 1214 int;
#X obj 1500 643 random 0;
#X obj 667 846 <;
#X obj 2791 1049 mtof;
#X floatatom 2788 1111 5 0 0 0 - - - 0;
#X floatatom 1548 544 5 0 0 0 - - - 0;
#X floatatom 1383 534 5 0 0 0 - - - 0;
#X obj 1164 168 tgl 80 0 empty empty Full\ force 0 -30 0 18 #c6ffc7 #000000 #000000 0 1;
#X obj 968 724 expr if ($f1 == 1 \, $f2 \, $f3 + 1);
#X obj 666 965 expr if ($f1 == 1 \, $f2 \, 0);
#X text 1021 329 clock;
#X text 962 792 if full force \, change by force \, if not change by rand between 0 and force, f 31;
#X connect 1 0 31 0;
#X connect 1 0 39 0;
#X connect 2 0 4 0;
#X connect 3 0 8 0;
#X connect 3 0 16 0;
#X connect 3 0 20 0;
#X connect 3 0 7 0;
#X connect 3 0 37 0;
#X connect 4 0 3 0;
#X connect 5 0 4 1;
#X connect 6 0 5 0;
#X connect 7 0 6 0;
#X connect 8 0 9 0;
#X connect 8 0 10 0;
#X connect 9 0 8 1;
#X connect 10 0 11 0;
#X connect 11 0 34 0;
#X connect 13 0 14 0;
#X connect 14 0 12 0;
#X connect 14 0 12 1;
#X connect 15 0 13 0;
#X connect 16 0 17 0;
#X connect 17 0 38 0;
#X connect 18 0 45 0;
#X connect 19 0 28 1;
#X connect 20 0 28 0;
#X connect 21 0 35 0;
#X connect 22 0 42 0;
#X connect 23 0 41 0;
#X connect 24 0 6 1;
#X connect 28 0 29 0;
#X connect 29 0 31 1;
#X connect 31 0 36 0;
#X connect 32 0 1 0;
#X connect 34 0 33 1;
#X connect 34 0 32 0;
#X connect 35 0 33 0;
#X connect 36 0 21 0;
#X connect 37 0 44 2;
#X connect 38 0 18 0;
#X connect 39 0 40 0;
#X connect 40 0 15 0;
#X connect 41 0 37 1;
#X connect 41 0 44 1;
#X connect 42 0 38 1;
#X connect 43 0 44 0;
#X connect 44 0 45 1;
#X connect 45 0 19 0;
