#N canvas 0 70 920 840 36;
#X array pitches 16 float 3;
#A 0 67 65 74 66 56 56 65 64 60 56 68 56 60 68 66 68;
#X coords 0 127 16 0 320 320 1 0 0;
#X restore 579 19 graph;
#X floatatom 579 459 3 0 0 0 - - - 12;
#X obj 379 339 f, f 3;
#X obj 479 339 + 1, f 3;
#X obj 379 379 % 16;
#X obj 579 339 hradio 20 1 0 16 empty empty empty 0 -25 0 36 #e3c6ff #2f004d #2f004d 0;
#X floatatom 39 579 3 0 0 0 - - - 12;
#X text 619 458 old pitch;
#X text 79 758 new pitch;
#X floatatom 39 439 4 0 0 0 - - - 12;
#X text 79 438 signed amount of pitch change;
#X obj 39 499 +, f 25;
#X obj 579 419 tabread pitches;
#X obj 39 799 tabwrite pitches, f 5;
#X floatatom 579 379 3 0 0 0 - - - 12;
#X obj 39 719 clip 0 127;
#X obj 39 539 int;
#X obj 279 199 expr if ($f1 == 1 \, $f2 \, $f3 + 1);
#X text 279 238 if full force \, change by force \, if not change by rand between 0 and force, f 11;
#X obj 619 499 outlet;
#X obj 379 299 r clock;
#X obj 19 19 inlet;
#X obj 99 19 inlet;
#X obj 19 39 s clock;
#X obj 99 39 s proba;
#X obj 179 19 inlet;
#X obj 179 39 s force;
#X obj 259 19 inlet;
#X obj 259 39 s fforce;
#X obj 379 99 r force;
#X obj 279 99 r fforce;
#X obj 339 19 inlet;
#X obj 339 39 s lomidi;
#X obj 419 19 inlet;
#X obj 419 39 s himidi;
#X obj 99 579 r lomidi;
#X obj 179 579 r himidi;
#X floatatom 79 679 3 0 0 0 - - - 12;
#X floatatom 99 679 3 0 0 0 - - - 12;
#X obj 139 159 random 100, f 4;
#X floatatom 139 199 3 0 0 0 - - - 12;
#X floatatom 139 279 4 0 0 0 - - - 12;
#X floatatom 139 359 4 0 0 0 - - - 12;
#X obj 39 159 random 2, f 4;
#X text 179 358 abs amount of pitch change;
#X obj 39 399 expr if ($f1 == 1 \, $f2 \, -$f2);
#X obj 139 239 <;
#X obj 139 319 expr if ($f1 == 1 \, $f2 \, 0);
#X obj 139 99 r clock;
#X obj 179 199 r proba, f 3;
#X obj 439 159 random;
#X obj 99 599 int;
#X obj 179 599 int;
#X obj 99 639 min;
#X obj 179 639 max;
#X floatatom 39 759 3 0 0 0 - - - 12;
#X obj 517 670 select;
#X connect 1 0 19 0;
#X connect 1 0 11 1;
#X connect 2 0 3 0;
#X connect 2 0 4 0;
#X connect 3 0 2 1;
#X connect 4 0 5 0;
#X connect 5 0 14 0;
#X connect 6 0 15 0;
#X connect 9 0 11 0;
#X connect 11 0 16 0;
#X connect 12 0 1 0;
#X connect 14 0 13 1;
#X connect 14 0 12 0;
#X connect 15 0 55 0;
#X connect 16 0 6 0;
#X connect 17 0 47 1;
#X connect 20 0 2 0;
#X connect 21 0 23 0;
#X connect 22 0 24 0;
#X connect 25 0 26 0;
#X connect 27 0 28 0;
#X connect 29 0 17 1;
#X connect 29 0 50 1;
#X connect 30 0 17 0;
#X connect 31 0 32 0;
#X connect 33 0 34 0;
#X connect 35 0 51 0;
#X connect 36 0 52 0;
#X connect 37 0 15 1;
#X connect 38 0 15 2;
#X connect 39 0 40 0;
#X connect 40 0 46 0;
#X connect 41 0 47 0;
#X connect 42 0 45 1;
#X connect 43 0 45 0;
#X connect 45 0 9 0;
#X connect 46 0 41 0;
#X connect 47 0 42 0;
#X connect 48 0 39 0;
#X connect 48 0 17 0;
#X connect 48 0 43 0;
#X connect 48 0 50 0;
#X connect 49 0 46 1;
#X connect 50 0 17 2;
#X connect 51 0 53 0;
#X connect 51 0 54 0;
#X connect 52 0 53 1;
#X connect 52 0 54 1;
#X connect 53 0 37 0;
#X connect 54 0 38 0;
#X connect 55 0 13 0;
