#N canvas 0 70 1000 1000 36;
#X obj 19 19 tgl 20 0 empty empty Run 0 -8 0 18 #e3dfd9 #5a5a5a #5a5a5a 0 1;
#X obj 59 19 nbx 2 21 1 255 0 0 empty empty BPM 0 -8 0 18 #e3dfd9 #5a5a5a #5a5a5a 0 256;
#X obj 19 99 bng 21 250 50 0 empty empty empty 17 7 0 10 #e3dfd9 #5a5a5a #5a5a5a;
#X obj 179 39 knob 60 0 100 0 0 empty empty #E3DFD9 #968E82 #5A5A5A 1 0 0 0 1 270 0 0 0;
#X text 179 16 proba;
#X obj 259 39 knob 60 1 12 0 0 empty empty #E3DFD9 #968E82 #5A5A5A 1 0 12 1 1 270 0 0 1;
#X text 259 16 force;
#X obj 499 39 knob 60 1 16 0 8 empty empty #E3DFD9 #968E82 #5A5A5A 1 0 16 1 1 270 0 0 1;
#X text 499 16 seqlen;
#X text 339 57 lomidi;
#X text 339 77 himidi;
#X obj 179 439 dac~;
#X obj 399 39 tgl 21 0 empty empty empty 17 7 0 10 #e3dfd9 #5a5a5a #5a5a5a 0 1;
#X text 339 38 fforce;
#X floatatom 419 59 5 0 127 0 - - - 12;
#X floatatom 439 79 5 0 127 0 - - - 12;
#X obj 179 199 sr8;
#X obj 179 159 mtof;
#X obj 179 279 osc~, f 3;
#X obj 279 279 osc~, f 3;
#X obj 379 279 osc~, f 3;
#X obj 179 119 midimut16, f 17;
#X obj 19 59 bpm2clk, f 6;
#X obj 422 204 gatemut16;
#X obj 502 241 select 1;
#X connect 0 0 22 0;
#X connect 1 0 22 1;
#X connect 2 0 21 0;
#X connect 2 0 23 0;
#X connect 3 0 21 1;
#X connect 3 0 23 1;
#X connect 5 0 21 2;
#X connect 7 0 21 6;
#X connect 7 0 23 2;
#X connect 12 0 21 3;
#X connect 14 0 21 4;
#X connect 15 0 21 5;
#X connect 16 0 18 0;
#X connect 16 5 19 0;
#X connect 16 6 20 0;
#X connect 17 0 16 0;
#X connect 18 0 11 0;
#X connect 18 0 11 1;
#X connect 19 0 11 0;
#X connect 19 0 11 1;
#X connect 20 0 11 0;
#X connect 20 0 11 1;
#X connect 21 0 17 0;
#X connect 22 2 2 0;
#X connect 23 0 24 0;
