#N canvas 0 70 1000 1000 36;
#X obj 19 19 tgl 20 0 empty empty Run 0 -8 0 18 #e3dfd9 #5a5a5a #5a5a5a 0 1;
#X obj 59 19 nbx 2 21 1 255 0 0 empty empty BPM 0 -8 0 18 #e3dfd9 #5a5a5a #5a5a5a 0 256;
#X obj 19 99 bng 21 250 50 0 empty empty empty 17 7 0 10 #e3dfd9 #5a5a5a #5a5a5a;
#X obj 179 39 knob 60 0 100 0 0 empty empty #E3DFD9 #968E82 #5A5A5A 1 0 0 0 1 270 0 0 0;
#X text 179 9 proba;
#X obj 259 39 knob 60 1 12 0 0 empty empty #E3DFD9 #968E82 #5A5A5A 1 0 12 1 1 270 0 0 1;
#X text 259 9 force;
#X obj 499 39 knob 60 1 16 0 8 empty empty #E3DFD9 #968E82 #5A5A5A 1 0 16 1 1 270 0 0 1;
#X text 499 9 seqlen;
#X text 339 50 lomidi;
#X text 339 70 himidi;
#X obj 399 1119 dac~;
#X obj 399 39 tgl 21 0 empty empty empty 17 7 0 10 #e3dfd9 #5a5a5a #5a5a5a 0 1;
#X text 339 31 fforce;
#X floatatom 419 59 5 0 127 0 - - - 12;
#X floatatom 439 79 5 0 127 0 - - - 12;
#X obj 179 199 sr8;
#X obj 179 159 mtof;
#X obj 179 119 midimut16, f 17;
#X obj 19 59 bpm2clk, f 6;
#X obj 450 172 gatemut16;
#X obj 476 212 select 1;
#X obj 379 539 notein;
#X floatatom 339 599 5 0 0 0 - - - 12;
#X floatatom 379 599 5 0 0 0 - - - 12;
#X floatatom 429 599 2 0 0 0 - - - 16;
#X obj 359 699 mtof;
#X obj 399 959 *~;
#X floatatom 539 539 9 0 0 0 - - - 12;
#X floatatom 619 539 9 0 0 0 - - - 12;
#X floatatom 699 539 9 0 0 0 - - - 12;
#X floatatom 779 539 9 0 0 0 - - - 12;
#X obj 539 559 / 127;
#X obj 619 559 / 127;
#X obj 699 559 / 127;
#X obj 779 559 / 127;
#X obj 539 579 * 2000;
#X obj 619 579 * 2000;
#X floatatom 539 599 9 0 0 0 - - - 12;
#X obj 439 639 adsr~, f 17;
#X floatatom 619 599 9 0 0 0 - - - 12;
#X floatatom 699 599 9 0 0 0 - - - 12;
#X obj 779 579 * 2000;
#X floatatom 779 599 9 0 0 0 - - - 12;
#X obj 379 399 bendin;
#X floatatom 219 539 5 0 0 0 - - - 12;
#X floatatom 219 579 5 0 0 0 - - - 12;
#X floatatom 219 619 5 0 0 0 - - - 12;
#X obj 339 639 +;
#X floatatom 339 665 5 0 0 0 - - - 12;
#X obj 215 651 bng 25 250 50 0 empty empty empty 17 7 0 10 #e4e4e4 #4d4d4d #373737;
#X obj 219 559 / 4096;
#X obj 219 599 - 2;
#X obj 239 1259 ctlin;
#X floatatom 219 1299 5 0 0 0 - - - 12;
#X floatatom 259 1299 5 0 0 0 - - - 12;
#X floatatom 299 1299 5 0 0 0 - - - 12;
#X obj 539 499 ctlin 7;
#X obj 539 419 knob 60 0 127 0 0 empty empty #E4E4E4 #B7B7B7 #4D4D4D 1 0 0 0 1 270 0 0 0;
#X obj 619 419 knob 60 0 127 0 0 empty empty #E4E4E4 #B7B7B7 #4D4D4D 1 0 0 0 1 270 0 0 0;
#X obj 699 419 knob 60 0 127 0 0 empty empty #E4E4E4 #B7B7B7 #4D4D4D 1 0 0 0 1 270 0 0 0;
#X obj 779 419 knob 60 0 127 0 0 empty empty #E4E4E4 #B7B7B7 #4D4D4D 1 0 0 0 1 270 0 0 0;
#X obj 379 421 vsl 60 100 0 16384 0 0 empty empty empty 0 -9 0 10 #e4e4e4 #4d4d4d #373737 0 1;
#X obj 459 421 vsl 60 100 0 127 0 0 empty empty empty 0 -9 0 10 #e4e4e4 #4d4d4d #373737 0 1;
#X obj 625 499 hsl 220 20 0 127 0 0 empty empty empty -2 -8 0 10 #e4e4e4 #4d4d4d #373737 0 1;
#X obj 399 999 lop~;
#X obj 859 559 / 127;
#X floatatom 859 599 9 0 0 0 - - - 12;
#X obj 399 919 saw~;
#X obj 459 399 ctlin 1 17;
#X obj 539 399 ctlin 12 17;
#X obj 619 399 ctlin 13 17;
#X obj 699 399 ctlin 14 17;
#X obj 779 399 ctlin 15 17;
#X text 379 356 minicontrol-32 \, MIDI channel 17;
#X obj 859 399 ctlin 30 17;
#X obj 859 419 button 60 60 228 228 228 77 77 77 0;
#X obj 939 419 button 60 60 228 228 228 77 77 77 0;
#X obj 1019 419 button 60 60 228 228 228 77 77 77 0;
#X obj 1099 419 button 60 60 228 228 228 77 77 77 0;
#X obj 1179 419 button 60 60 228 228 228 77 77 77 0;
#X obj 1259 419 button 60 60 228 228 228 77 77 77 0;
#X obj 1339 419 button 60 60 228 228 228 77 77 77 0;
#X obj 1419 419 button 60 60 228 228 228 77 77 77 0;
#X obj 939 399 ctlin 31 17;
#X obj 1019 399 ctlin 32 17;
#X obj 1099 399 ctlin 33 17;
#X obj 1179 399 ctlin 34 17;
#X obj 1259 399 ctlin 35 17;
#X obj 1339 399 ctlin 36 17;
#X obj 1419 399 ctlin 37 17;
#X obj 859 577 * 20000;
#X obj 499 1059 rev2~ 100 90 3000 50;
#X obj 159 1419 knob 100 0 127 0 0 empty empty #E4E4E4 #B7B7B7 #4D4D4D 1 0 0 0 1 270 0 0 0;
#X obj 159 1399 ctlin 16 1;
#X obj 279 1419 knob 100 0 127 0 0 empty empty #E4E4E4 #B7B7B7 #4D4D4D 1 0 0 0 1 270 0 0 0;
#X obj 279 1399 ctlin 20 1;
#X obj 159 1559 knob 100 0 127 0 0 empty empty #E4E4E4 #B7B7B7 #4D4D4D 1 0 0 0 1 270 0 0 0;
#X obj 159 1699 knob 100 0 127 0 0 empty empty #E4E4E4 #B7B7B7 #4D4D4D 1 0 0 0 1 270 0 0 0;
#X obj 159 1539 ctlin 17 1;
#X obj 159 1679 ctlin 18 1;
#X obj 279 1559 knob 100 0 127 0 0 empty empty #E4E4E4 #B7B7B7 #4D4D4D 1 0 0 0 1 270 0 0 0;
#X obj 279 1699 knob 100 0 127 0 0 empty empty #E4E4E4 #B7B7B7 #4D4D4D 1 0 0 0 1 270 0 0 0;
#X obj 399 1419 knob 100 0 127 0 0 empty empty #E4E4E4 #B7B7B7 #4D4D4D 1 0 0 0 1 270 0 0 0;
#X obj 399 1559 knob 100 0 127 0 0 empty empty #E4E4E4 #B7B7B7 #4D4D4D 1 0 0 0 1 270 0 0 0;
#X obj 399 1699 knob 100 0 127 0 0 empty empty #E4E4E4 #B7B7B7 #4D4D4D 1 0 0 0 1 270 0 0 0;
#X obj 519 1419 knob 100 0 127 0 0 empty empty #E4E4E4 #B7B7B7 #4D4D4D 1 0 0 0 1 270 0 0 0;
#X obj 519 1559 knob 100 0 127 0 0 empty empty #E4E4E4 #B7B7B7 #4D4D4D 1 0 0 0 1 270 0 0 0;
#X obj 519 1699 knob 100 0 127 0 0 empty empty #E4E4E4 #B7B7B7 #4D4D4D 1 0 0 0 1 270 0 0 0;
#X obj 639 1419 knob 100 0 127 0 0 empty empty #E4E4E4 #B7B7B7 #4D4D4D 1 0 0 0 1 270 0 0 0;
#X obj 759 1419 knob 100 0 127 0 0 empty empty #E4E4E4 #B7B7B7 #4D4D4D 1 0 0 0 1 270 0 0 0;
#X obj 639 1559 knob 100 0 127 0 0 empty empty #E4E4E4 #B7B7B7 #4D4D4D 1 0 0 0 1 270 0 0 0;
#X obj 639 1699 knob 100 0 127 0 0 empty empty #E4E4E4 #B7B7B7 #4D4D4D 1 0 0 0 1 270 0 0 0;
#X obj 759 1559 knob 100 0 127 0 0 empty empty #E4E4E4 #B7B7B7 #4D4D4D 1 0 0 0 1 270 0 0 0;
#X obj 759 1699 knob 100 0 127 0 0 empty empty #E4E4E4 #B7B7B7 #4D4D4D 1 0 0 0 1 270 0 0 0;
#X obj 879 1419 knob 100 0 127 0 0 empty empty #E4E4E4 #B7B7B7 #4D4D4D 1 0 0 0 1 270 0 0 0;
#X obj 879 1559 knob 100 0 127 0 0 empty empty #E4E4E4 #B7B7B7 #4D4D4D 1 0 0 0 1 270 0 0 0;
#X obj 879 1699 knob 100 0 127 0 0 empty empty #E4E4E4 #B7B7B7 #4D4D4D 1 0 0 0 1 270 0 0 0;
#X obj 999 1419 knob 100 0 127 0 0 empty empty #E4E4E4 #B7B7B7 #4D4D4D 1 0 0 0 1 270 0 0 0;
#X obj 999 1559 knob 100 0 127 0 0 empty empty #E4E4E4 #B7B7B7 #4D4D4D 1 0 0 0 1 270 0 0 0;
#X obj 999 1699 knob 100 0 127 0 0 empty empty #E4E4E4 #B7B7B7 #4D4D4D 1 0 0 0 1 270 0 0 0;
#X obj 279 1539 ctlin 21 1;
#X obj 279 1679 ctlin 22 1;
#X obj 399 1399 ctlin 24 1;
#X obj 399 1539 ctlin 25 1;
#X obj 399 1679 ctlin 26 1;
#X obj 519 1399 ctlin 28 1;
#X obj 639 1399 ctlin 46 1;
#X obj 759 1399 ctlin 50 1;
#X obj 879 1399 ctlin 54 1;
#X obj 999 1399 ctlin 58 1;
#X obj 519 1539 ctlin 29 1;
#X obj 519 1679 ctlin 30 1;
#X obj 639 1539 ctlin 47 1;
#X obj 639 1679 ctlin 48 1;
#X obj 759 1539 ctlin 51 1;
#X obj 759 1679 ctlin 52 1;
#X obj 879 1539 ctlin 55 1;
#X obj 879 1679 ctlin 56 1;
#X obj 999 1539 ctlin 59 1;
#X obj 999 1679 ctlin 60 1;
#X connect 0 0 19 0;
#X connect 1 0 19 1;
#X connect 2 0 18 0;
#X connect 2 0 20 0;
#X connect 3 0 18 1;
#X connect 3 0 20 1;
#X connect 5 0 18 2;
#X connect 7 0 18 6;
#X connect 7 0 20 2;
#X connect 12 0 18 3;
#X connect 14 0 18 4;
#X connect 15 0 18 5;
#X connect 17 0 16 0;
#X connect 18 0 17 0;
#X connect 19 2 2 0;
#X connect 20 0 21 0;
#X connect 22 0 23 0;
#X connect 22 1 24 0;
#X connect 22 2 25 0;
#X connect 23 0 48 0;
#X connect 24 0 39 0;
#X connect 26 0 68 0;
#X connect 27 0 65 0;
#X connect 28 0 32 0;
#X connect 29 0 33 0;
#X connect 30 0 34 0;
#X connect 31 0 35 0;
#X connect 32 0 36 0;
#X connect 33 0 37 0;
#X connect 34 0 41 0;
#X connect 35 0 42 0;
#X connect 36 0 38 0;
#X connect 37 0 40 0;
#X connect 38 0 39 2;
#X connect 39 0 27 1;
#X connect 40 0 39 3;
#X connect 41 0 39 4;
#X connect 42 0 43 0;
#X connect 43 0 39 5;
#X connect 44 0 62 0;
#X connect 45 0 51 0;
#X connect 46 0 52 0;
#X connect 47 0 50 0;
#X connect 47 0 48 1;
#X connect 48 0 49 0;
#X connect 49 0 26 0;
#X connect 50 0 48 0;
#X connect 51 0 46 0;
#X connect 52 0 47 0;
#X connect 53 0 54 0;
#X connect 53 1 55 0;
#X connect 53 2 56 0;
#X connect 57 0 64 0;
#X connect 58 0 28 0;
#X connect 59 0 29 0;
#X connect 60 0 30 0;
#X connect 61 0 31 0;
#X connect 62 0 45 0;
#X connect 64 0 66 0;
#X connect 65 0 11 0;
#X connect 65 0 11 1;
#X connect 65 0 92 0;
#X connect 66 0 91 0;
#X connect 67 0 65 1;
#X connect 67 0 92 3;
#X connect 68 0 27 0;
#X connect 69 0 63 0;
#X connect 70 0 58 0;
#X connect 71 0 59 0;
#X connect 72 0 60 0;
#X connect 73 0 61 0;
#X connect 75 0 76 0;
#X connect 84 0 77 0;
#X connect 85 0 78 0;
#X connect 86 0 79 0;
#X connect 87 0 80 0;
#X connect 88 0 81 0;
#X connect 89 0 82 0;
#X connect 90 0 83 0;
#X connect 91 0 67 0;
#X connect 92 0 11 0;
#X connect 92 1 11 1;
#X connect 94 0 93 0;
#X connect 96 0 95 0;
#X connect 99 0 97 0;
#X connect 100 0 98 0;
#X connect 121 0 101 0;
#X connect 122 0 102 0;
#X connect 123 0 103 0;
#X connect 124 0 104 0;
#X connect 125 0 105 0;
#X connect 126 0 106 0;
#X connect 127 0 109 0;
#X connect 128 0 110 0;
#X connect 129 0 115 0;
#X connect 130 0 118 0;
#X connect 131 0 107 0;
#X connect 132 0 108 0;
#X connect 133 0 111 0;
#X connect 134 0 112 0;
#X connect 135 0 113 0;
#X connect 136 0 114 0;
#X connect 137 0 116 0;
#X connect 138 0 117 0;
#X connect 139 0 119 0;
#X connect 140 0 120 0;
