#N canvas -122 -40 660 220 36;
#X obj 19 59 t f b b b b b b b;
#X obj 19 99 f;
#X floatatom 19 139 5 0 0 0 - - - 12;
#X obj 99 99 f;
#X floatatom 99 139 5 0 0 0 - - - 12;
#X obj 179 99 f;
#X floatatom 179 139 5 0 0 0 - - - 12;
#X obj 259 99 f;
#X floatatom 259 139 5 0 0 0 - - - 12;
#X obj 339 99 f;
#X floatatom 339 139 5 0 0 0 - - - 12;
#X obj 419 99 f;
#X floatatom 419 139 5 0 0 0 - - - 12;
#X obj 499 99 f;
#X floatatom 499 139 5 0 0 0 - - - 12;
#X text 99 18 https://www.youtube.com/watch?v=nsirYZjUDz4;
#X obj 579 99 f;
#X floatatom 579 139 5 0 0 0 - - - 12;
#X text 179 58 trigger in order l to r;
#X obj 19 19 inlet;
#X obj 19 179 outlet;
#X obj 99 179 outlet;
#X obj 179 179 outlet;
#X obj 259 179 outlet;
#X obj 339 179 outlet;
#X obj 419 179 outlet;
#X obj 499 179 outlet;
#X obj 579 179 outlet;
#X connect 0 0 1 0;
#X connect 0 1 3 0;
#X connect 0 2 5 0;
#X connect 0 3 7 0;
#X connect 0 4 9 0;
#X connect 0 5 11 0;
#X connect 0 6 13 0;
#X connect 0 7 16 0;
#X connect 1 0 2 0;
#X connect 1 0 3 1;
#X connect 2 0 20 0;
#X connect 3 0 4 0;
#X connect 3 0 5 1;
#X connect 4 0 21 0;
#X connect 5 0 6 0;
#X connect 5 0 7 1;
#X connect 6 0 22 0;
#X connect 7 0 8 0;
#X connect 7 0 9 1;
#X connect 8 0 23 0;
#X connect 9 0 10 0;
#X connect 9 0 11 1;
#X connect 10 0 24 0;
#X connect 11 0 12 0;
#X connect 11 0 13 1;
#X connect 12 0 25 0;
#X connect 13 0 14 0;
#X connect 13 0 16 1;
#X connect 14 0 26 0;
#X connect 16 0 17 0;
#X connect 17 0 27 0;
#X connect 19 0 0 0;
