#N canvas -122 -40 3072 1537 36;
#X obj 882 595 t f b b b b b b b;
#X obj 881 697 f;
#X floatatom 881 750 5 0 0 0 - - - 0;
#X obj 1002 697 f;
#X floatatom 1002 750 5 0 0 0 - - - 0;
#X obj 1122 697 f;
#X floatatom 1122 750 5 0 0 0 - - - 0;
#X obj 1243 697 f;
#X floatatom 1243 750 5 0 0 0 - - - 0;
#X obj 1360 697 f;
#X floatatom 1360 750 5 0 0 0 - - - 0;
#X obj 1478 697 f;
#X floatatom 1478 750 5 0 0 0 - - - 0;
#X obj 1598 697 f;
#X floatatom 1598 750 5 0 0 0 - - - 0;
#X text 1017 541 https://www.youtube.com/watch?v=nsirYZjUDz4;
#X obj 1719 697 f;
#X floatatom 1719 750 5 0 0 0 - - - 0;
#X text 1280 594 trigger in order l to r;
#X obj 882 542 inlet;
#X obj 881 812 outlet;
#X obj 1026 809 outlet;
#X obj 1168 809 outlet;
#X obj 1309 809 outlet;
#X obj 1458 809 outlet;
#X obj 1600 810 outlet;
#X obj 1744 809 outlet;
#X obj 1890 809 outlet;
#X connect 0 0 1 0;
#X connect 0 1 3 0;
#X connect 0 2 5 0;
#X connect 0 3 7 0;
#X connect 0 4 9 0;
#X connect 0 5 11 0;
#X connect 0 6 13 0;
#X connect 0 7 16 0;
#X connect 1 0 2 0;
#X connect 1 0 3 1;
#X connect 2 0 20 0;
#X connect 3 0 4 0;
#X connect 3 0 5 1;
#X connect 4 0 21 0;
#X connect 5 0 6 0;
#X connect 5 0 7 1;
#X connect 6 0 22 0;
#X connect 7 0 8 0;
#X connect 7 0 9 1;
#X connect 8 0 23 0;
#X connect 9 0 10 0;
#X connect 9 0 11 1;
#X connect 10 0 24 0;
#X connect 11 0 12 0;
#X connect 11 0 13 1;
#X connect 12 0 25 0;
#X connect 13 0 14 0;
#X connect 13 0 16 1;
#X connect 14 0 26 0;
#X connect 16 0 17 0;
#X connect 17 0 27 0;
#X connect 19 0 0 0;
